<?xml version="1.0" standalone="no"?><!DOCTYPE svg PUBLIC "-//W3C//DTD SVG 1.1//EN" "http://www.w3.org/Graphics/SVG/1.1/DTD/svg11.dtd"><svg t="1577242963226" class="icon" viewBox="0 0 1024 1024" version="1.1" xmlns="http://www.w3.org/2000/svg" p-id="39360" width="74" height="74" xmlns:xlink="http://www.w3.org/1999/xlink"><defs><style type="text/css"></style></defs><path d="M116.9408 561.4592m0-40.96l0 0q0-40.96 40.96-40.96l573.44 0q40.96 0 40.96 40.96l0 0q0 40.96-40.96 40.96l-573.44 0q-40.96 0-40.96-40.96Z" fill="#ff8800" p-id="39361"></path><path d="M769.82272 519.43424l-203.22304-203.22304a40.96 40.96 0 1 1 57.91744-57.91744l231.71072 231.71072a40.96 40.96 0 0 1 0.45056 58.44992L624.9472 780.12416a40.96 40.96 0 0 1-57.93792-57.91744l202.79296-202.79296z" fill="#ff8800" p-id="39362"></path></svg>