<?xml version="1.0" standalone="no"?><!DOCTYPE svg PUBLIC "-//W3C//DTD SVG 1.1//EN" "http://www.w3.org/Graphics/SVG/1.1/DTD/svg11.dtd"><svg t="1576667591593" class="icon" viewBox="0 0 1024 1024" version="1.1" xmlns="http://www.w3.org/2000/svg" p-id="9406" width="64" height="64" xmlns:xlink="http://www.w3.org/1999/xlink"><defs><style type="text/css"></style></defs><path d="M847.2064 459.3152h-126.1568A80.9984 80.9984 0 0 1 640 378.368a19.5072 19.5072 0 0 0-19.5072-19.456h-212.48a19.5072 19.5072 0 0 0-19.456 19.456 80.9984 80.9984 0 0 1-80.896 80.9472H181.504a61.44 61.44 0 0 1-61.44-61.44 242.5856 242.5856 0 0 1 242.2784-242.3296h303.9744a242.5856 242.5856 0 0 1 242.3296 242.3296 61.44 61.44 0 0 1-61.44 61.44z m-484.864-242.3296a181.0432 181.0432 0 0 0-180.8384 180.8896h126.1568a19.5072 19.5072 0 0 0 19.456-19.5072 80.9984 80.9984 0 0 1 80.896-80.896h212.6336A80.9984 80.9984 0 0 1 701.44 378.368a19.5072 19.5072 0 0 0 19.456 19.5072h126.1568a181.0944 181.0944 0 0 0-180.8896-180.8896zM794.88 929.6384H233.8304A98.4576 98.4576 0 0 1 143.36 792.1664l110.848-256.5632A98.304 98.304 0 0 1 344.6272 476.16h339.456a98.3552 98.3552 0 0 1 90.368 59.392l110.7968 256.5632a98.4064 98.4064 0 0 1-90.368 137.472zM344.6272 537.6a37.0176 37.0176 0 0 0-33.9968 22.3232L199.68 816.5376a37.0176 37.0176 0 0 0 33.9968 51.6608h561.2032a37.0176 37.0176 0 0 0 33.9968-51.6608l-110.848-256.5632a36.9664 36.9664 0 0 0-33.9456-22.3232z" fill="#999999" p-id="9407"></path><path d="M514.3552 801.5872a111.5136 111.5136 0 1 1 111.4624-111.5136 111.616 111.616 0 0 1-111.4624 111.5136z m0-161.536a50.0736 50.0736 0 1 0 50.0224 50.0224 50.1248 50.1248 0 0 0-50.0224-50.0736z" fill="#999999" p-id="9408"></path></svg>