<?xml version="1.0" standalone="no"?><!DOCTYPE svg PUBLIC "-//W3C//DTD SVG 1.1//EN" "http://www.w3.org/Graphics/SVG/1.1/DTD/svg11.dtd"><svg t="1576667633309" class="icon" viewBox="0 0 1024 1024" version="1.1" xmlns="http://www.w3.org/2000/svg" p-id="13419" width="64" height="64" xmlns:xlink="http://www.w3.org/1999/xlink"><defs><style type="text/css"></style></defs><path d="M700.251235 87.441073H310.741002c-54.921665 0-99.726182 44.804517-99.726182 99.726182v654.724065c0 54.921665 44.804517 99.726182 99.726182 99.726182h389.510233c54.921665 0 99.726182-44.804517 99.726182-99.726182V186.444601c0-54.921665-44.804517-99.003529-99.726182-99.003528z m-389.510233 50.585744h389.510233c26.738179 0 49.140438 21.679605 49.140438 49.140438v504.412138H261.600565V186.444601c0-26.738179 22.402258-48.417784 49.140437-48.417784z m389.510233 753.00494H310.741002c-26.738179 0-49.140438-21.679605-49.140437-49.140437v-99.726182h487.791108v99.726182c0 26.738179-21.679605 49.140438-49.140438 49.140437z" fill="#999999" p-id="13420"></path><path d="M540.544813 788.414961h-70.097389c-13.730416 0-25.292872 11.562456-25.292872 25.292872s11.562456 25.292872 25.292872 25.292873h70.097389c13.730416 0 25.292872-11.562456 25.292872-25.292873s-10.839802-25.292872-25.292872-25.292872z" fill="#999999" p-id="13421"></path><path d="M409.744531 221.131969m-27.460833 0a27.460833 27.460833 0 1 0 54.921665 0 27.460833 27.460833 0 1 0-54.921665 0Z" fill="#999999" p-id="13422"></path><path d="M505.857445 221.131969m-27.460832 0a27.460833 27.460833 0 1 0 54.921665 0 27.460833 27.460833 0 1 0-54.921665 0Z" fill="#999999" p-id="13423"></path><path d="M601.97036 221.131969m-27.460833 0a27.460833 27.460833 0 1 0 54.921666 0 27.460833 27.460833 0 1 0-54.921666 0Z" fill="#999999" p-id="13424"></path></svg>