<?xml version="1.0" standalone="no"?><!DOCTYPE svg PUBLIC "-//W3C//DTD SVG 1.1//EN" "http://www.w3.org/Graphics/SVG/1.1/DTD/svg11.dtd"><svg t="1576667676226" class="icon" viewBox="0 0 1076 1024" version="1.1" xmlns="http://www.w3.org/2000/svg" p-id="15270" width="67.25" height="64" xmlns:xlink="http://www.w3.org/1999/xlink"><defs><style type="text/css"></style></defs><path d="M539.792598 97.655869c20.882727 0.126332 42.043385 1.680219 62.521849 5.912351 9.967617 2.059216 19.897335 4.674295 29.713354 7.339906 9.424389 2.526646 19.151975 5.053291 28.197367 8.780094 8.211599 3.398339 15.879969 7.996834 24.003134 11.62257 9.058025 4.042633 22.360815 10.586646 31.696771 4.535329 5.268056-3.410972 6.556646-9.196991 8.84326-14.641912q2.867743-6.923009 5.861818-13.795486 6.139749-14.04815 12.822728-27.793103a588.809525 588.809525 0 0 1 33.41489-59.843604h-21.868119c4.358464 7.036708 9.032759 13.896552 12.633228 21.362789l19.846803-15.311473a56.091536 56.091536 0 0 1-9.361223-15.778902l-23.093542 9.740219c16.296865 27.919436 31.936802 56.243134 46.313417 85.198495q10.700345 21.564921 20.402664 43.622538c2.918276 6.682978 5.154357 13.542821 7.971567 20.213166 2.981442 7.150407 6.41768 13.997617 9.007493 21.312257 10.750878 30.319749 16.928527 62.44605 23.864169 93.776457s13.201724 63.166144 17.800219 95.014514c2.273981 15.829436 1.579154 32.151567 1.983417 48.132601 0.416897 16.600063 0.896959 33.200125 1.263323 49.800188 0.82116 33.313824 1.389655 66.627648 0.78326 99.954106-0.303197 16.764295-0.896959 33.515956-1.894984 50.254984-0.896959 15.159874-1.010658 30.761912-5.609154 45.277492-7.314639 23.068276-25.695987 46.086018-50.242351 50.532915-14.983009 2.741411-32.025235 3.095141-47.665172 3.789968-16.51163 0.707461-33.035893 0.871693-49.547523 0.78326-32.757962-0.164232-65.503291-1.351755-98.261253-1.263322q-12.532163 0-25.064326 0.378996c-13.73232 0.366364-17.787586 21.75442-3.360439 24.811662a43.887837 43.887837 0 0 0 10.435047 0.555862c2.81721-0.075799 6.758777 0.164232 9.373856-0.78326 12.330031-4.446897 11.546771-19.644671 0-24.369499-4.472163-1.831818-11.938401-0.366364-16.423197-0.227398-7.693636 0.227398-14.995643 7.971567-12.178433 15.993668 24.457931 69.64699 44.418432 140.734168 66.033887 211.290751q9.348589 30.585047 19.25304 60.904795a12.91116 12.91116 0 0 0 15.538872 8.84326c6.316614-1.743386 10.965643-9.032759 8.84326-15.538871-23.144075-70.379717-42.952978-141.807993-65.364326-212.402475q-9.550721-30.016552-19.935235-59.755172l-12.178432 15.993668c3.284639-0.101066 6.556646-0.202132 9.841285-0.240032h2.071849c1.945517-0.113699 1.263323 1.010658-2.172915-0.404263v-24.432664c3.512038-1.263323 3.524671-0.341097 1.263323-0.277931-1.263323 0-2.602445 0.113699-3.903668 0.151598s-2.526646 0.063166-3.789968 0c-1.743386 0-5.305956-0.871693 0.126332 0.277931l-3.360439 24.811662c67.752006-1.819185 135.630344 4.042633 203.281284-1.869718 16.524263-1.440188 32.063135-3.031975 46.603981-11.685737a97.958056 97.958056 0 0 0 32.24-31.646238 107.938306 107.938306 0 0 0 16.094733-40.312633c2.943542-17.395956 3.347806-35.512006 4.181599-53.05956 3.221473-68.547899 0.101066-137.158965-1.402289-205.706864-0.189498-8.931693 0-17.863385-1.263323-26.731912q-1.730752-12.83536-3.789968-25.632821c-2.615078-16.183166-5.609154-32.303166-8.84326-48.36-6.645078-32.656896-13.896552-65.339059-22.360815-97.566426a335.551189 335.551189 0 0 0-17.080126-47.778871c-3.031975-7.024075-5.356489-14.313448-8.388463-21.350156q-5.053291-11.685737-10.409781-23.232508c-13.984984-30.117617-29.460689-59.515141-45.820721-88.432601q-6.101849-10.788777-12.36793-21.476489c-7.024075-12.026834-27.906802-4.131066-23.093543 9.740219 3.524671 10.169749 9.247523 18.54558 15.854702 26.934044 3.789969 4.876426 12.165799 4.510063 16.58743 0.985392 5.179624-4.118433 6.038683-10.44768 3.259373-16.296865-3.562571-7.491505-8.249498-14.326081-12.633229-21.36279a12.784827 12.784827 0 0 0-21.817586 0 583.655168 583.655168 0 0 0-31.039843 55.017711q-6.796677 13.707053-12.999592 27.704671-3.322539 7.478871-6.506113 15.020909-1.705486 4.042633-3.398339 8.085266l-1.756019 4.244765c-0.303197 0.74536-2.147649 3.60047-0.669561 1.515988l4.535329-4.53533 1.048558-0.378996h6.720878c-12.923793-2.362414-23.78837-9.31069-35.587805-14.730345-13.643887-6.316614-28.235266-10.245549-42.738213-13.997618a378.5168 378.5168 0 0 0-92.803698-12.532163c-16.258965-0.101066-16.284232 25.165392 0 25.266458z" fill="#999999" p-id="15271"></path><path d="M395.255828 1014.183981c20.213166-70.922946 43.837304-140.797334 66.324451-210.97492q9.70232-30.319749 18.949843-60.715297c2.38768-7.832602-4.143699-16.069467-12.178433-15.993668-5.053291 0-10.624545 0-15.046175 2.716144a12.974326 12.974326 0 0 0-1.17489 21.324891c6.733511 5.369122 19.657304 4.307931 25.152758-2.526646 3.259373-4.017367 4.825893-8.767461 2.615078-13.795486a12.633229 12.633229 0 0 0-11.546771-7.769436c-33.604388 0.505329-67.208777-0.126332-100.813165-0.31583-16.877994-0.088433-33.76862-0.063166-50.646614 0.303197-15.943135 0.341097-31.835736 1.263323-47.791504 0.770627-26.870878-0.808527-54.613448-4.800627-69.356426-28.95536a51.695172 51.695172 0 0 1-6.897743-16.802194c-1.465455-6.518746-0.795893-14.250282-0.82116-21.388057q-0.088433-25.733887-0.328464-51.480407c-0.543229-68.017304-0.606395-135.933541 3.284639-203.862412 3.67627-64.429467 15.715737-127.772476 34.412916-189.498431a743.793976 743.793976 0 0 1 33.553855-89.822257q10.106583-22.436614 21.32489-44.342633c7.27674-14.174483 15.538871-27.502539 23.876803-41.057993 4.232132-6.88511 8.274765-13.896552 11.900501-21.110125l-23.093542-9.74022c-1.99605 5.735486-5.609154 11.028809-9.361223 15.791536l19.846803 15.311473c3.575204-7.491505 8.249498-14.326081 12.633229-21.362789H298.270531c11.546771 16.764295 20.819561 34.867711 29.448056 53.274325s16.233699 37.899686 26.52978 55.497774c3.095141 5.293323 8.06 9.853918 14.401881 10.52348s12.367931-3.63837 17.939185-6.190282q13.30279-6.127116 27.022476-11.205674a385.970405 385.970405 0 0 1 59.23721-16.814828 343.358524 343.358524 0 0 1 66.956112-6.316614c16.258965 0 16.284232-25.266457 0-25.266458-61.309059 0-120.925266 15.741003-175.841911 42.523448l9.74022-1.263323c0.341097 0.075799 2.160282 1.60442 2.375047 1.263323a37.103793 37.103793 0 0 0-2.135016-4.067899q-1.680219-3.24674-3.309906-6.518746c-2.438213-4.876426-4.787994-9.790752-7.112508-14.717712-4.45953-9.500188-8.767461-19.063542-13.214357-28.56373-8.84326-18.949843-18.318182-37.621755-30.20605-54.891379-5.369122-7.807335-16.574796-8.464263-21.817586 0-4.358464 7.036708-9.045392 13.896552-12.633229 21.36279-2.703511 5.67232-2.046583 12.330031 3.259373 16.296865 4.547962 3.398339 12.633229 4.017367 16.58743-0.985392 6.619812-8.388464 12.330031-16.764295 15.854702-26.934044 4.661661-13.429122-16.675862-22.550313-23.093543-9.740219-7.314639 14.629279-16.498997 28.1342-25.001159 42.068652-8.679028 14.250282-15.804169 29.713354-22.992477 44.746896a800.946703 800.946703 0 0 0-38.682946 94.837648c-20.870094 63.646206-35.01931 129.579027-40.451598 196.307742-5.67232 69.68489-5.305956 139.786676-4.787994 209.635798q0.202132 26.226583 0.378997 52.465799c0.088433 16.423197-1.705486 33.730721 3.9542 49.408557a81.926488 81.926488 0 0 0 27.022477 37.647022c11.458338 8.679028 25.506489 13.896552 39.617805 16.246332 33.402257 5.571254 67.410909 2.135016 101.06583 1.894984 34.791912-0.252665 69.571191 0.555862 104.363103 0.517963q12.822727 0 25.645454-0.202132l-8.931693-21.564921q-0.934859 1.048558 0.404264-0.138966a5.697586 5.697586 0 0 1 2.615078-1.389655c-2.03395 0.707461 2.526646-0.265298 1.048558-0.075799a6.897743 6.897743 0 0 1-1.579154 0c2.880376 0.341097 3.322539-0.416897 6.657712 2.968808l3.24674 5.571254v-0.164232l-1.263323 9.74022 0.088432-0.164232-4.560595 4.484796q-3.903668 1.389655-1.844452 0.795893-2.842476 0.290564-1.13699 0.138966a48.701097 48.701097 0 0 0 5.280689-0.202132l-12.178432-15.993668c-21.476489 70.632382-45.416457 140.481504-67.234043 210.974921q-9.361223 30.319749-18.090784 60.72793c-4.45953 15.665204 19.909969 22.348182 24.369498 6.720878z" fill="#999999" p-id="15272"></path><path d="M184.546206 1008.865392c15.791536-54.234451 34.261316-107.622476 51.796237-161.288431q7.579937-23.00511 14.742978-46.098652c2.438213-7.832602-4.181599-16.069467-12.178432-15.993668-4.244765 0-8.565329 0.35373-12.355298 2.450847-7.125141 3.954201-8.653762 14.755611-2.602445 20.339498 6.645078 6.127116 17.68652 5.192257 23.889436-1.263323 3.789969-3.903668 5.053291-10.561379 1.970783-15.311473-3.322539-5.141724-8.438997-6.632445-14.262915-5.811285 6.405047-0.909592-0.164232-0.075799-1.819185 0-2.526646 0.176865-5.053291 0.315831-7.579937 0.429529-7.112508 0.328464-14.225016 0.543229-21.32489 0.720094-19.253041 0.480063-38.518714 0.682194-57.784389 0.707461s-38.190251-0.101066-57.266426-0.74536c-3.789969-0.126332-7.579937-0.277931-11.458338-0.480063l-4.724828-0.265298c-0.972759 0-1.945517-0.151599-2.918275-0.240031-0.442163 0-2.526646-0.328464-0.176866 0q-1.490721-0.214765-2.968808-0.46743c-3.006708-0.517962-5.98815-1.162257-8.931693-1.983417q-2.375047-0.656928-4.712194-1.440188c-0.78326-0.265298-1.541254-0.555862-2.324514-0.833793s-1.64232-0.656928-0.404264-0.126332a59.035078 59.035078 0 0 1-8.666395-4.649028c-0.694828-0.442163-1.364389-0.909592-2.03395-1.389655-0.265298-0.189498-1.806552-1.503354-0.366363-0.277931-1.263323-1.061191-2.46348-2.147649-3.613104-3.297273s-2.160282-2.311881-3.221473-3.499404c-0.277931-0.315831-1.414922-1.907618-0.176865-0.189499-0.442163-0.619028-0.884326-1.263323-1.263323-1.882351q-1.099091-1.654953-2.046583-3.398338-0.543229-0.985392-1.035925-1.996051c-0.442163-0.922226-0.909592-2.261348-0.290564-0.568495a59.717272 59.717272 0 0 1-2.412947-8.603229c0-0.189498-0.315831-2.03395-0.113699-0.555862s0-0.770627-0.088432-1.149624c-0.138966-1.831818-0.151599-3.663636-0.151599-5.508087q0-23.737837-0.227398-47.463041c-0.202132-31.305141-0.315831-62.622915 0.720094-93.915422 0.517962-15.500972 0.909592-31.02721 1.932884-46.502915 0.505329-7.718903 1.099091-15.437806 1.490721-23.169342 0.176865-3.562571 0.315831-7.125141 0.366363-10.700344 0-0.707461 0.214765-4.926959-0.176865-2.526646a46.831379 46.831379 0 0 1 1.756019-5.874452c2.097116-7.036708 1.95815-15.071442 2.842476-22.360814q0.328464-2.716144 0.682195-5.419656c0.202132-1.490721 0-0.328464 0 0l0.378997-2.703511q0.82116-5.735486 1.768652-11.445705 3.499404-21.097492 8.704294-41.853887a570.478711 570.478711 0 0 1 27.477273-82.318118c-0.480063 1.162257 0.922226-2.147649 1.124357-2.627712q1.073824-2.526646 2.185549-5.053291 2.210815-5.053291 4.497429-9.967618 4.598495-9.967617 9.550721-19.771003c6.897743-13.681787 14.679812-26.731912 22.53768-39.883103q6.202915-10.359248 12.367931-20.743761l-23.144075-9.575988c-0.909592 2.526646 0.492696-0.492696-0.694828 1.692853-0.720094 1.263323-1.414922 2.615078-2.210815 3.878401s-1.402288 2.135016-2.147648 3.17094q-0.555862 0.78326-1.136991 1.541254 0.998025-1.263323-0.39163 0.442163l19.846802 15.311474a168.855735 168.855735 0 0 1 9.841285-16.309499H103.781974c16.764295 23.813636 27.174075 51.151943 40.426332 76.898464 3.031975 5.887085 11.761536 8.0979 17.282257 4.535329a12.923793 12.923793 0 0 0 4.535329-17.282257c-13.26489-25.74652-23.674671-53.059561-40.426332-76.898464-5.495455-7.807335-16.423197-8.438997-21.817586 0a168.843102 168.843102 0 0 0-9.841285 16.309499c-2.791944 5.710219-1.95815 12.266865 3.259373 16.296865 4.535329 3.512038 12.633229 3.916301 16.587429-0.985392 5.508088-6.821944 10.106583-13.568088 13.088025-21.880752 2.109749-5.924984-1.920251-12.633229-7.314639-14.90721a12.633229 12.633229 0 0 0-15.778903 5.16699c-8.502163 14.326081-17.383323 28.450031-25.645454 42.952978-7.365172 12.898527-13.782853 26.52978-19.947868 39.984169a610.412347 610.412347 0 0 0-31.772571 85.160595 553.777582 553.777582 0 0 0-17.623354 88.445235c-0.416897 3.625737-0.909592 7.264107-1.149624 10.902476 0 0.467429-0.404263 2.728777 0.0758 0.35373-0.164232 0.795893-0.378997 1.579154-0.606395 2.349781-0.467429 1.56652-1.086458 3.107774-1.478088 4.699561-1.95815 7.845235-1.099091 16.637962-1.56652 24.697962-0.896959 15.614671-1.654953 31.229341-2.438213 46.844012-1.60442 32.467398-1.680219 64.985329-1.591787 97.528526 0.075799 16.12 0.214765 32.227367 0.277931 48.347367 0.063166 15.513605-0.328464 30.16815 6.796677 44.418432 12.860627 25.733887 41.853887 36.295266 68.926896 37.83652 17.850752 1.010658 35.764671 1.187524 53.640689 1.263323q30.926144 0.189498 61.902821-0.378997c14.326081-0.265298 28.715329-0.404263 42.952978-1.503354 2.602445-0.202132 5.166991-0.530596 7.756802-0.896959l-12.292131-21.110125c-1.149624 1.200157 1.136991-0.871693 1.263322-0.947493l2.03395-0.871692q-1.351755 0.303197 0.669561 0c2.46348-0.366364-0.619028-0.404263 1.970784 0q1.970784 0.341097 1.086458 0.138965-4.45953-1.073824 6.657711 5.28069l1.263323 9.740219v-0.138965l-3.24674 5.571253q-7.579937 3.549937-4.547962 2.766678 1.263323-0.303197-1.654953 0.189498c0.214765-0.35373 3.120408-0.126332 3.398339-0.126332l-12.178433-15.993668c-16.764295 53.893354-35.37304 107.167679-52.453166 160.985234q-7.314639 23.131442-14.136583 46.401849c-1.844451 6.316614 2.236081 14.035517 8.84326 15.538872a12.885893 12.885893 0 0 0 15.538872-8.843261zM916.540746 1003.572069c-15.791536-54.234451-34.261316-107.622476-51.796238-161.288431q-7.579937-23.00511-14.742978-46.098652l-12.178433 15.993668a16.751661 16.751661 0 0 0 3.398339 0.126332c-1.629687 0.619028-5.217523-1.920251-6.202915-2.956176l-3.297273-5.583887v0.138966l1.263323-9.74022s7.819969-5.684953 6.480846-5.230156a4.699561 4.699561 0 0 1 3.234107-0.202132c2.084483 0.315831 0-0.555862 1.692852 0.480063 0.42953 0.265298 3.221473 2.362414 2.286615 1.389655l-12.292132 21.110125c12.380564 1.756019 25.013793 1.793918 37.495423 2.109749 19.897335 0.505329 39.807304 0.694828 59.717272 0.707461 19.32884 0 38.670313-0.126332 57.973887-0.833793 24.281066-0.896959 49.269592-4.345831 67.65094-21.906019a62.180752 62.180752 0 0 0 18.798244-38.859811c0.770627-7.251473 0.315831-14.705078 0.353731-21.981818q0-12.254232 0.138965-24.495831c0.214765-32.55583 0.42953-65.111661-0.530595-97.654858-0.467429-15.766269-0.871693-31.583072-1.844452-47.336708-0.492696-7.971567-1.124357-15.930501-1.56652-23.914702s0.404263-16.423197-1.515988-24.003135c-0.404263-1.591787-1.023292-3.120408-1.490721-4.699561-0.227398-0.78326-0.442163-1.553887-0.619028-2.34978 0.138966 0.669561 0.277931 2.400313 0.0758-0.353731-0.277931-3.865768-0.78326-7.731536-1.263323-11.584671q-1.402288-11.849969-3.24674-23.649404-3.448871-21.804953-8.704295-43.256175a571.249337 571.249337 0 0 0-27.868902-84.314169c-5.962884-14.275548-12.317398-28.361599-19.240408-42.207617-7.163041-14.326081-15.248307-27.982602-23.472539-41.689655q-6.202915-10.359248-12.367931-20.756395a12.633229 12.633229 0 0 0-15.778902-5.16699c-5.419655 2.286614-9.437022 8.944326-7.31464 14.90721 2.968809 8.312665 7.579937 15.058809 13.088025 21.880752 3.941567 4.876426 12.064733 4.484796 16.58743 0.985392 5.192257-4.004734 6.06395-10.561379 3.259373-16.296865a169.184199 169.184199 0 0 0-9.841286-16.309499c-5.369122-8.438997-16.322132-7.807335-21.817586 0-16.764295 23.813636-27.174075 51.151943-40.426332 76.911097-3.019342 5.874451-1.718119 13.984984 4.535329 17.282257 5.786019 3.057241 14.04815 1.743386 17.282257-4.535329 13.26489-25.74652 23.687304-53.059561 40.426332-76.911097h-21.741786a169.184199 169.184199 0 0 1 9.841285 16.309498l19.846802-15.311473c-1.692853-2.097116 0.290564 0.543229-1.162257-1.465454-0.871693-1.263323-1.730752-2.42558-2.526646-3.688903s-1.263323-2.185549-1.907617-3.309906q-0.454796-0.846426-0.846426-1.718119 0.656928 1.591787-0.151599-0.543229l-23.093542 9.740219c8.249498 13.896552 16.675862 27.679404 24.862194 41.601223 7.314639 12.44373 13.542821 25.695987 19.594138 38.796645a568.823758 568.823758 0 0 1 29.624921 79.033479q6.076583 20.819561 10.498213 42.068652 2.210815 10.649812 3.979467 21.375423 0.833793 5.053291 1.566521 10.106583l0.378996 2.703511c0.214765 1.490721 0 0.328464 0 0 0.277931 2.03395 0.530596 4.0679 0.770627 6.101849 0.909592 7.504138 0.757994 15.72837 3.031975 22.954577 0.492696 1.553887 0.934859 3.145674 1.427555 4.699561s-0.075799-0.126332-0.063166-0.416896v2.81721c0 4.042633 0.202132 8.085266 0.416897 12.115266 0.770627 15.159874 2.172915 30.218683 2.438213 45.365924 0.265298 15.791536 1.263323 31.583072 1.52862 47.361975s0.303197 31.835736 0.252665 47.753605c0 15.639937-0.176865 31.279874-0.265298 46.919811 0 7.883135 0 15.778903-0.075799 23.662038 0 1.402288 0 2.804577-0.113699 4.194232 0 0.757994-0.126332 1.515987-0.202132 2.273981 0-0.530596 0.454796-2.412947 0 0a71.25141 71.25141 0 0 1-2.412947 8.603229c0.720094-2.135016 0.189498-0.416897 0 0.063166-0.328464 0.669561-0.656928 1.351755-1.010658 2.008683a46.376583 46.376583 0 0 1-2.311881 3.891035c-0.416897 0.644295-0.85906 1.263323-1.263323 1.882351 0.138966-0.189498 1.124357-1.377022 0.189499-0.265298-1.136991 1.377022-2.324514 2.690878-3.587837 3.9542s-2.375047 2.236081-3.625737 3.297273c1.56652-1.326489-2.046583 1.427555-2.400313 1.667586a57.784388 57.784388 0 0 1-8.666395 4.649028c2.03395-0.871693-2.337147 0.82116-2.728778 0.960126q-2.03395 0.694828-4.118432 1.263323a94.193354 94.193354 0 0 1-10.106583 2.248714l-2.375047 0.366364c0.227398 0 1.894984-0.189498 0.416896-0.075799-1.073824 0.088433-2.135016 0.214765-3.20884 0.290564-1.781285 0.126332-3.562571 0.214765-5.343856 0.303197-17.68652 0.896959-35.309874 1.086458-52.958494 1.174891-33.970752 0.176865-68.219435 0.593762-102.177555-1.831818-1.718119-0.126332-8.110533-0.934859-1.819184 0-5.432288-0.770627-11.445705 0.454796-14.262916 5.811285a13.050125 13.050125 0 0 0 1.970784 15.311473c5.773386 6.013417 17.68652 7.832602 23.889436 1.263323a12.986959 12.986959 0 0 0-1.263323-19.354107c-3.941567-3.044608-8.84326-3.398339-13.631254-3.436238-7.996834-0.075799-14.616646 8.161066-12.178433 15.993668 16.739028 53.893354 35.37304 107.167679 52.440533 160.985234q7.314639 23.131442 14.136583 46.401849c1.844451 6.316614 8.982226 10.940376 15.538871 8.84326s10.801411-8.742194 8.84326-15.538871z" fill="#999999" p-id="15273"></path></svg>