<?xml version="1.0" standalone="no"?><!DOCTYPE svg PUBLIC "-//W3C//DTD SVG 1.1//EN" "http://www.w3.org/Graphics/SVG/1.1/DTD/svg11.dtd"><svg t="1577159895477" class="icon" viewBox="0 0 1024 1024" version="1.1" xmlns="http://www.w3.org/2000/svg" p-id="6117" width="128" height="128" xmlns:xlink="http://www.w3.org/1999/xlink"><defs><style type="text/css"></style></defs><path d="M936.001 374V271c0-74.558-60.441-135-135-135H786v70h15.001c35.899 0 65 29.101 65 65v103H815l86 120 86-120h-50.999z" fill="#ff8800" p-id="6118"></path><path d="M88 308h120v52H88zM366 862h120v52H366zM238 308h120v52H238zM516 862h120v52H516zM388 308h120v52H388zM666 862h120v52H666zM538 308h120v52H538zM816 862h120v52H816z" fill="#ff8800" p-id="6119"></path><path d="M694 115V52H52v63h642z m0 102H52v201h642V217zM34 0h678c18.778 0 34 15.222 34 34v402c0 18.778-15.222 34-34 34H34c-18.778 0-34-15.222-34-34V34C0 15.222 15.222 0 34 0zM972 669v-63H330v63h642z m0 102H330v201h642V771zM312 554h678c18.778 0 34 15.222 34 34v402c0 18.778-15.222 34-34 34H312c-18.778 0-34-15.222-34-34V588c0-18.778 15.222-34 34-34zM158 650h51l-86-120-86 120h51v103c0 74.558 60.442 135 135 135h15.001v-70H223c-35.899 0-65-29.101-65-65V650z" fill="#ff8800" p-id="6120"></path></svg>