<?xml version="1.0" standalone="no"?><!DOCTYPE svg PUBLIC "-//W3C//DTD SVG 1.1//EN" "http://www.w3.org/Graphics/SVG/1.1/DTD/svg11.dtd"><svg t="1577159763767" class="icon" viewBox="0 0 1024 1024" version="1.1" xmlns="http://www.w3.org/2000/svg" p-id="3136" width="128" height="128" xmlns:xlink="http://www.w3.org/1999/xlink"><defs><style type="text/css"></style></defs><path d="M608.448 669.888v95.424c0 17.6 14.4 32 32 32s32-14.4 32-32v-95.424c0-17.6-14.4-32-32-32s-32 14.4-32 32z" fill="#ff8800" p-id="3137"></path><path d="M640.448 863.04m-32 0a32 32 0 1 0 64 0 32 32 0 1 0-64 0Z" fill="#ff8800" p-id="3138"></path><path d="M924.992 913.472l-256.832-444.8c-11.456-19.776-44.032-19.776-55.424 0l-256.832 444.8a32.128 32.128 0 0 0 27.712 48h513.6a32 32 0 0 0 27.776-48z m-485.952-16l201.408-348.8 201.408 348.8H439.04zM639.808 192.384H321.792a32.64 32.64 0 0 0 0 65.28h317.952a32.64 32.64 0 0 0 0.064-65.28zM639.808 317.696H321.792a32.64 32.64 0 0 0 0 65.28h317.952a32.64 32.64 0 0 0 0.064-65.28zM543.808 478.784a32.64 32.64 0 0 0-32.64-32.64H321.792a32.64 32.64 0 0 0 0 65.28h189.312a32.64 32.64 0 0 0 32.704-32.64z" fill="#ff8800" p-id="3139"></path><path d="M288.384 831.168c-0.384 0 0.384 0 0 0l-97.6-0.128a32 32 0 0 1-32-32V158.528a32 32 0 0 1 32-32h577.536a32 32 0 0 1 32 32l0.192 416.768a31.936 31.936 0 0 0 31.936 31.296 32.32 32.32 0 0 0 31.872-31.616c0-0.064 0 0.064 0 0s0 0.064 0 0V126.528a64 64 0 0 0-64-64H158.784a64 64 0 0 0-64 64v704.512a64 64 0 0 0 64 64l129.536-0.128c0.448 0-0.448 0 0 0 17.6 0 32.768-14.208 32.768-31.872s-15.04-31.872-32.704-31.872z" fill="#ff8800" p-id="3140"></path></svg>