<?xml version="1.0" standalone="no"?><!DOCTYPE svg PUBLIC "-//W3C//DTD SVG 1.1//EN" "http://www.w3.org/Graphics/SVG/1.1/DTD/svg11.dtd"><svg t="1577159914717" class="icon" viewBox="0 0 1024 1024" version="1.1" xmlns="http://www.w3.org/2000/svg" p-id="6512" width="128" height="128" xmlns:xlink="http://www.w3.org/1999/xlink"><defs><style type="text/css"></style></defs><path d="M512 99.5c-227.5 0-412.5 185-412.5 412.5s185 412.5 412.5 412.5 412.5-185 412.5-412.5S739.5 99.5 512 99.5z m0 785c-205.4 0-372.5-167.1-372.5-372.5S306.6 139.5 512 139.5 884.5 306.6 884.5 512 717.4 884.5 512 884.5z" fill="#ff8800" p-id="6513"></path><path d="M652.1 589.1c-4.2-36.6-22.8-58.5-55.9-65.8v-1.1c20.5-5.2 36.7-16.2 48.6-32.9 10.4-15.3 15.7-32.7 15.7-52.2 0-35.2-11.5-62.2-34.5-81-21.6-17.1-51.5-25.6-89.8-25.6H371v373h57V549.4h100.8c21.6 0 37.9 4.5 49.1 13.6 11.2 9.8 17.8 24.7 19.9 44.9l4.7 46.5c2.1 21.6 7.5 37.9 16.2 49.1h61.6c-12.5-13.6-19.8-31.9-21.9-54.9l-6.3-59.5z m-66.9-104.5c-12.9 10.8-31.7 16.2-56.4 16.2H428V379.1h100.3c26.1 0 45.3 4.9 57.5 14.6 11.8 9.7 17.8 24.9 17.8 45.4-0.1 20-6.2 35.1-18.4 45.5z" fill="#ff8800" p-id="6514"></path></svg>