<?xml version="1.0" standalone="no"?><!DOCTYPE svg PUBLIC "-//W3C//DTD SVG 1.1//EN" "http://www.w3.org/Graphics/SVG/1.1/DTD/svg11.dtd"><svg t="1577159814330" class="icon" viewBox="0 0 1024 1024" version="1.1" xmlns="http://www.w3.org/2000/svg" p-id="5144" width="128" height="128" xmlns:xlink="http://www.w3.org/1999/xlink"><defs><style type="text/css"></style></defs><path d="M896.27 63.22H121.33c-7.57 0-13.71 6.14-13.71 13.71v867.92c0 7.57 6.13 13.71 13.71 13.71h774.94c7.57 0 13.71-6.13 13.71-13.71V76.93c-0.01-7.57-6.14-13.71-13.71-13.71z m-13.71 27.42v250.8H135.04V90.64h747.52zM135.04 931.15V368.36h747.53v562.79H135.04z" fill="#ff8800" p-id="5145"></path><path d="M360.78 421.01H213.72c-7.26 0-13.14 5.88-13.14 13.14v96.75c0 7.26 5.88 13.14 13.14 13.14h147.06c7.26 0 13.14-5.88 13.14-13.14v-96.75c0-7.26-5.88-13.14-13.14-13.14z m-13.14 96.74H226.86V447.3h120.78v70.45zM582.32 421.01H435.28c-7.26 0-13.14 5.88-13.14 13.14v96.75c0 7.26 5.88 13.14 13.14 13.14h147.05c7.26 0 13.14-5.88 13.14-13.14v-96.75c-0.01-7.26-5.88-13.14-13.15-13.14z m-13.14 96.74H448.42V447.3h120.76v70.45zM803.88 421.01H656.82c-7.26 0-13.14 5.88-13.14 13.14v96.75c0 7.26 5.88 13.14 13.14 13.14h147.06c7.26 0 13.14-5.88 13.14-13.14v-96.75c0-7.26-5.88-13.14-13.14-13.14z m-13.14 96.74H669.96V447.3h120.78v70.45zM360.78 586.76H213.72c-7.26 0-13.14 5.88-13.14 13.14v96.75c0 7.26 5.88 13.14 13.14 13.14h147.06c7.26 0 13.14-5.88 13.14-13.14V599.9c0-7.26-5.88-13.14-13.14-13.14z m-13.14 96.75H226.86v-70.47h120.78v70.47zM582.32 586.76H435.28c-7.26 0-13.14 5.88-13.14 13.14v96.75c0 7.26 5.88 13.14 13.14 13.14h147.05c7.26 0 13.14-5.88 13.14-13.14V599.9c-0.01-7.26-5.88-13.14-13.15-13.14z m-13.14 96.75H448.42v-70.47h120.76v70.47zM803.88 586.76H656.82c-7.26 0-13.14 5.88-13.14 13.14v96.75c0 7.26 5.88 13.14 13.14 13.14h147.06c7.26 0 13.14-5.88 13.14-13.14V599.9c0-7.26-5.88-13.14-13.14-13.14z m-13.14 96.75H669.96v-70.47h120.78v70.47zM360.78 752.5H213.72c-7.26 0-13.14 5.88-13.14 13.14v96.75c0 7.26 5.88 13.14 13.14 13.14h147.06c7.26 0 13.14-5.88 13.14-13.14v-96.75c0-7.26-5.88-13.14-13.14-13.14z m-13.14 96.76H226.86v-70.47h120.78v70.47zM582.32 752.5H435.28c-7.26 0-13.14 5.88-13.14 13.14v96.75c0 7.26 5.88 13.14 13.14 13.14h147.05c7.26 0 13.14-5.88 13.14-13.14v-96.75c-0.01-7.26-5.88-13.14-13.15-13.14z m-13.14 96.76H448.42v-70.47h120.76v70.47zM803.88 752.5H656.82c-7.26 0-13.14 5.88-13.14 13.14v96.75c0 7.26 5.88 13.14 13.14 13.14h147.06c7.26 0 13.14-5.88 13.14-13.14v-96.75c0-7.26-5.88-13.14-13.14-13.14z m-13.14 96.76H669.96v-70.47h120.78v70.47zM213.72 304.94h590.16c7.43 0 13.46-6.03 13.46-13.46v-147.5c0-7.44-6.03-13.46-13.46-13.46H213.72c-7.43 0-13.46 6.03-13.46 13.46v147.49c0 7.44 6.03 13.47 13.46 13.47z m13.46-147.49h563.24v120.56H227.18V157.45z" fill="#ff8800" p-id="5146"></path><path d="M760.09 179.58H724.3c-3.63 0-6.57 2.94-6.57 6.57v65.78c0 3.63 2.94 6.57 6.57 6.57h35.79c3.63 0 6.57-2.94 6.57-6.57v-65.78c0-3.63-2.94-6.57-6.57-6.57z m-6.57 65.79h-22.65v-52.64h22.65v52.64z" fill="#ff8800" p-id="5147"></path></svg>