<?xml version="1.0" standalone="no"?><!DOCTYPE svg PUBLIC "-//W3C//DTD SVG 1.1//EN" "http://www.w3.org/Graphics/SVG/1.1/DTD/svg11.dtd"><svg t="1577241772241" class="icon" viewBox="0 0 1024 1024" version="1.1" xmlns="http://www.w3.org/2000/svg" p-id="1832" width="74" height="74" xmlns:xlink="http://www.w3.org/1999/xlink"><defs><style type="text/css"></style></defs><path d="M305.312 114.432a32 32 0 0 1 29.568 56.768A383.904 383.904 0 0 0 128 512c0 212.064 171.936 384 384 384s384-171.936 384-384c0-144.64-80.64-274.912-206.592-340.64a32 32 0 1 1 29.632-56.736A447.904 447.904 0 0 1 960 512c0 247.424-200.576 448-448 448S64 759.424 64 512C64 343.168 158.24 191.04 305.312 114.432zM512 261.312a32 32 0 0 1 32 32v352a32 32 0 1 1-64 0v-352a32 32 0 0 1 32-32z" fill="#ff8800" p-id="1833"></path><path d="M353.6 494.656a32 32 0 0 0-45.248 45.28l181.024 180.992a32 32 0 0 0 45.248 0l181.024-180.992a32 32 0 1 0-45.248-45.28L512 653.056l-158.4-158.4z" fill="#ff8800" p-id="1834"></path></svg>