<?xml version="1.0" standalone="no"?><!DOCTYPE svg PUBLIC "-//W3C//DTD SVG 1.1//EN" "http://www.w3.org/Graphics/SVG/1.1/DTD/svg11.dtd"><svg t="1577241795164" class="icon" viewBox="0 0 1024 1024" version="1.1" xmlns="http://www.w3.org/2000/svg" p-id="2158" width="74" height="74" xmlns:xlink="http://www.w3.org/1999/xlink"><defs><style type="text/css"></style></defs><path d="M786.56 887.744a28.896 28.896 0 0 1 0 57.792H208.544a28.896 28.896 0 0 1 0-57.792zM844.416 64a86.72 86.72 0 0 1 86.72 86.72V699.84a86.72 86.72 0 0 1-86.72 86.72H150.72A86.72 86.72 0 0 1 64 699.84V150.72A86.72 86.72 0 0 1 150.72 64h693.664z m0 57.792H150.72a28.896 28.896 0 0 0-28.928 28.928V699.84c0 15.968 12.96 28.896 28.928 28.896h693.664a28.896 28.896 0 0 0 28.896-28.896V150.72a28.896 28.896 0 0 0-28.896-28.928z" fill="#ff8800" p-id="2159"></path><path d="M228.352 548.224l166.592-157.376 172.064 160.48 244.768-235.264a28.896 28.896 0 0 0-40.064-41.664L566.4 471.744l-171.712-160.16-206.016 194.592a28.896 28.896 0 1 0 39.68 42.048z" fill="#ff8800" p-id="2160"></path></svg>