<?xml version="1.0" standalone="no"?><!DOCTYPE svg PUBLIC "-//W3C//DTD SVG 1.1//EN" "http://www.w3.org/Graphics/SVG/1.1/DTD/svg11.dtd"><svg t="1577241740748" class="icon" viewBox="0 0 1024 1024" version="1.1" xmlns="http://www.w3.org/2000/svg" p-id="1506" width="74" height="74" xmlns:xlink="http://www.w3.org/1999/xlink"><defs><style type="text/css"></style></defs><path d="M65.056 573.568H960v-64H65.056z" fill="#ff8800" p-id="1507"></path><path d="M672 96a96 96 0 0 1 96 96v96h128a96 96 0 0 1 96 96v480a96 96 0 0 1-96 96H128a96 96 0 0 1-96-96V384a96 96 0 0 1 96-96h128V192a96 96 0 0 1 90.368-95.84L352 96z m224 256H128a32 32 0 0 0-32 32v480a32 32 0 0 0 32 32h768a32 32 0 0 0 32-32V384a32 32 0 0 0-32-32z m-224-192H352a32 32 0 0 0-32 32v96h384V192a32 32 0 0 0-28.256-31.776L672 160z" fill="#ff8800" p-id="1508"></path></svg>