<?xml version="1.0" standalone="no"?><!DOCTYPE svg PUBLIC "-//W3C//DTD SVG 1.1//EN" "http://www.w3.org/Graphics/SVG/1.1/DTD/svg11.dtd"><svg t="1577173714712" class="icon" viewBox="0 0 1024 1024" version="1.1" xmlns="http://www.w3.org/2000/svg" p-id="3394" width="74" height="74" xmlns:xlink="http://www.w3.org/1999/xlink"><defs><style type="text/css"></style></defs><path d="M512 1024a512 512 0 1 1 512-512 512.568889 512.568889 0 0 1-512 512z m0-946.915556A434.915556 434.915556 0 1 0 946.915556 512 435.427556 435.427556 0 0 0 512 77.084444z" fill="#F5F5F5" p-id="3395"></path><path d="M261.688889 512m-71.111111 0a71.111111 71.111111 0 1 0 142.222222 0 71.111111 71.111111 0 1 0-142.222222 0Z" fill="#F5F5F5" p-id="3396"></path><path d="M512 512m-71.111111 0a71.111111 71.111111 0 1 0 142.222222 0 71.111111 71.111111 0 1 0-142.222222 0Z" fill="#F5F5F5" p-id="3397"></path><path d="M762.311111 512m-71.111111 0a71.111111 71.111111 0 1 0 142.222222 0 71.111111 71.111111 0 1 0-142.222222 0Z" fill="#F5F5F5" p-id="3398"></path></svg>